<?xml version="1.0" standalone="no"?>
<!DOCTYPE svg PUBLIC "-//W3C//DTD SVG 20010904//EN"
 "http://www.w3.org/TR/2001/REC-SVG-20010904/DTD/svg10.dtd">
<svg version="1.0" xmlns="http://www.w3.org/2000/svg"
 width="571.000000pt" height="571.000000pt" viewBox="0 0 571.000000 571.000000"
 preserveAspectRatio="xMidYMid meet">
<metadata>
Created by potrace 1.14, written by Peter Selinger 2001-2017
</metadata>
<g transform="translate(0.000000,571.000000) scale(0.100000,-0.100000)"
fill="#000000" stroke="none">
<path d="M1780 4363 c-100 -35 -128 -55 -164 -116 -20 -34 -36 -67 -36 -74 0
-18 -2 -17 -57 15 -26 15 -60 33 -75 39 l-27 12 5 -41 c9 -94 44 -145 145
-214 l36 -25 -26 -52 c-26 -51 -37 -87 -27 -87 6 0 68 103 102 168 25 49 31
43 39 -37 6 -68 -5 -84 -87 -119 -40 -17 -65 -31 -54 -32 25 0 98 21 114 33
17 14 22 6 26 -43 l4 -42 -39 6 c-27 4 -42 2 -54 -10 -15 -15 -15 -18 1 -35
16 -18 16 -20 -2 -34 -16 -12 -17 -17 -6 -35 7 -12 10 -30 7 -41 -7 -22 4 -24
29 -6 16 12 16 14 2 26 -23 20 -20 38 9 45 l26 7 -23 31 c-19 27 -19 31 -4 25
10 -4 26 -7 35 -7 13 0 18 -7 17 -22 -2 -25 11 -48 26 -48 9 0 5 91 -7 178 -4
28 2 43 40 92 25 32 45 64 45 70 0 7 7 9 18 5 80 -31 142 -48 148 -42 10 10
-22 110 -44 134 -27 30 -136 103 -155 103 -21 0 -22 -5 8 74 14 36 22 66 20
66 -3 0 -1 9 5 20 11 20 7 23 -20 13z m-36 -109 c-24 -52 -44 -102 -44 -110 0
-8 -4 -13 -9 -9 -16 9 -33 109 -23 134 7 19 90 78 114 80 4 1 -13 -42 -38 -95z
m-201 -104 l98 -65 -33 -7 c-41 -8 -107 -2 -124 13 -8 6 -19 30 -26 53 -6 22
-15 45 -20 51 -10 11 -11 28 0 23 4 -2 51 -32 105 -68z m122 -22 c9 -23 0 -23
-41 3 l-34 21 21 30 22 30 12 -33 c7 -19 16 -42 20 -51z m146 6 c6 -7 -5 -15
-33 -25 -22 -7 -43 -21 -45 -30 -4 -14 -7 -14 -28 5 -13 11 -21 25 -18 29 3 5
9 3 14 -4 6 -10 13 -2 26 28 l18 41 28 -16 c16 -10 33 -22 38 -28z m82 -51 c4
-3 21 -31 37 -64 l30 -59 -112 57 -113 57 50 12 c45 10 86 9 108 -3z m-241
-25 c3 -7 -4 -27 -15 -45 l-19 -33 -34 28 c-19 15 -34 30 -34 33 0 4 36 15 92
28 3 0 8 -5 10 -11z m96 -25 c15 -9 29 -18 31 -20 6 -4 -43 -73 -51 -73 -5 0
-7 3 -7 8 3 15 -14 73 -22 78 -11 6 -2 24 12 24 5 0 22 -8 37 -17z"/>
<path d="M3304 4284 c-14 -8 -43 -14 -63 -14 -62 0 -156 -38 -196 -78 -49 -50
-101 -158 -85 -177 8 -10 8 -19 1 -34 -13 -23 -14 -68 -3 -75 8 -5 10 16 12
102 2 70 112 212 163 212 13 0 28 5 35 12 6 6 38 13 71 14 32 1 65 5 72 10 26
16 58 15 119 -6 90 -30 135 -63 190 -138 52 -70 68 -120 70 -217 0 -27 4 -66
9 -85 l9 -35 2 45 c9 181 5 210 -42 278 -54 79 -100 123 -157 151 -92 46 -162
58 -207 35z"/>
<path d="M2380 4273 c-65 -9 -157 -62 -213 -123 -75 -82 -108 -173 -88 -245 7
-28 8 -26 15 25 26 191 189 329 374 318 87 -5 146 -34 218 -106 66 -67 101
-116 120 -169 7 -21 13 -30 14 -20 1 44 -62 146 -134 219 -79 81 -189 117
-306 101z"/>
<path d="M2424 4098 c4 -13 9 -35 12 -50 11 -47 26 -53 104 -39 89 16 92 33 5
25 l-65 -6 -18 41 c-19 45 -49 68 -38 29z"/>
<path d="M4204 4109 c-43 -10 -62 -25 -127 -98 -37 -41 -39 -42 -62 -27 -13 9
-32 24 -42 34 -19 20 -53 36 -53 25 0 -3 38 -43 85 -88 l84 -82 -40 3 c-106 7
-122 23 -133 127 -9 85 -17 81 -17 -8 0 -75 20 -118 90 -195 l42 -44 -21 -28
c-11 -15 -30 -41 -42 -58 -12 -16 -19 -32 -17 -35 7 -6 46 32 109 108 l55 66
3 -37 c2 -21 -3 -55 -10 -77 -14 -42 -31 -52 -128 -73 l-45 -10 55 0 c30 1 68
5 83 9 l29 8 -6 -42 c-3 -23 -5 -45 -5 -49 -2 -18 -20 -6 -23 15 -2 14 -11 23
-25 25 -18 3 -24 -4 -32 -35 -12 -44 -95 -133 -179 -190 -50 -35 -60 -38 -123
-38 -47 0 -65 -3 -58 -10 5 -5 40 -10 77 -9 84 1 138 30 234 125 47 46 80 70
107 76 45 12 71 1 71 -27 0 -11 5 -20 10 -20 6 0 8 -12 5 -27 l-6 -28 14 24
c13 21 13 29 0 60 -8 20 -21 39 -28 43 -10 6 -12 25 -8 70 6 61 8 65 61 115
l55 52 41 -28 c106 -72 117 -59 17 20 -38 30 -78 61 -90 69 -32 22 -26 28 32
25 95 -4 93 -3 131 -120 l16 -50 -6 65 c-3 36 -12 76 -20 90 -25 39 -127 131
-141 126 -7 -3 2 18 20 47 30 47 57 101 57 112 0 7 -51 4 -96 -6z m22 -86
c-79 -110 -89 -130 -75 -138 9 -6 21 6 51 49 4 5 21 -4 42 -21 38 -34 32 -43
-24 -43 -19 0 -35 -8 -45 -22 -15 -22 -14 -24 14 -49 l31 -25 -33 -32 c-30
-29 -55 -43 -43 -24 2 4 1 27 -4 52 -7 36 -5 46 8 56 14 11 15 15 3 38 -8 14
-20 26 -26 26 -6 0 -24 13 -40 30 l-29 30 25 26 24 26 7 -43 c13 -73 28 -71
29 4 1 37 2 73 3 80 1 14 59 44 100 51 16 3 31 8 34 11 19 18 4 -6 -52 -82z
m-136 -203 c-5 -9 -16 -23 -26 -31 -15 -12 -20 -10 -46 21 l-29 35 48 5 c51 5
67 -4 53 -30z"/>
<path d="M2389 4090 c-1 -8 -3 -19 -4 -25 -2 -5 -3 -18 -4 -27 -1 -20 -40 -38
-116 -57 -71 -17 -102 -30 -102 -45 0 -9 22 -6 82 10 148 39 176 63 155 133
-5 14 -9 19 -11 11z"/>
<path d="M3180 4059 c0 -27 -27 -44 -45 -29 -13 11 -14 10 -9 -4 3 -9 9 -17
13 -17 22 -5 62 -10 103 -14 27 -2 52 -6 58 -10 5 -3 18 -1 29 4 14 8 20 8 23
0 6 -18 57 -13 78 6 18 16 20 17 20 2 0 -10 9 -26 19 -36 11 -11 24 -29 31
-40 6 -12 18 -21 26 -21 8 0 13 -4 10 -9 -7 -11 22 -36 31 -27 3 3 1 6 -6 6
-8 0 -11 8 -8 20 3 11 1 20 -3 20 -5 0 -15 7 -24 15 -11 12 -12 23 -5 47 14
49 11 52 -16 21 -13 -15 -25 -22 -26 -15 -1 6 -2 16 -3 22 0 5 -9 19 -19 30
-18 21 -37 19 -37 -4 0 -23 -39 -26 -59 -5 -15 17 -20 18 -30 5 -12 -15 -28
-16 -48 -3 -7 4 -22 5 -35 2 -26 -6 -40 1 -56 30 -9 16 -11 17 -12 4z"/>
<path d="M2603 3909 c-18 -5 -33 -16 -33 -24 0 -19 2 -18 46 0 20 8 33 19 29
25 -3 5 -7 10 -8 9 -1 0 -17 -5 -34 -10z"/>
<path d="M2783 3873 c-27 -10 -14 -32 17 -28 23 3 31 -1 36 -18 21 -66 -11
-131 -66 -139 -20 -2 -25 1 -23 17 1 18 -1 17 -15 -5 -54 -79 -139 -133 -233
-147 -107 -17 -247 22 -309 85 -34 34 -54 40 -45 13 5 -16 2 -18 -15 -14 -32
8 -61 53 -58 87 2 25 11 35 43 51 l40 20 -34 3 c-24 3 -40 -3 -57 -19 -28 -26
-30 -58 -8 -105 19 -40 46 -57 87 -56 16 0 39 -8 51 -19 11 -11 39 -29 62 -39
167 -77 370 -37 455 90 15 22 30 36 34 30 13 -21 57 -10 91 24 29 29 34 41 34
80 0 65 -42 108 -87 89z"/>
<path d="M2273 3858 c-38 -12 -47 -44 -10 -33 23 7 69 46 52 44 -6 -1 -25 -6
-42 -11z"/>
<path d="M2923 3824 c-22 -23 -25 -31 -19 -72 7 -52 38 -92 72 -92 13 0 33
-14 50 -35 31 -38 123 -99 166 -110 20 -5 28 -15 32 -40 9 -46 26 -54 26 -13
l0 33 83 1 c96 1 150 22 215 85 51 48 56 63 7 20 -122 -107 -294 -113 -441
-16 -42 28 -113 103 -128 136 -3 8 -4 2 -1 -13 4 -21 1 -28 -10 -28 -24 0 -47
45 -43 87 3 35 6 39 48 52 37 12 41 16 25 22 -35 14 -55 9 -82 -17z"/>
<path d="M1754 3777 c-12 -32 24 -139 58 -174 87 -89 239 -159 323 -147 41 5
45 4 45 -15 0 -27 -33 -35 -115 -27 -88 8 -216 68 -277 129 -19 19 -58 39 -58
30 1 -29 99 -104 188 -145 56 -26 80 -31 147 -32 44 0 87 3 96 7 13 6 15 2 14
-25 -3 -48 4 -58 36 -58 16 0 29 -2 29 -5 0 -2 -4 -26 -10 -52 -11 -57 -17
-90 -26 -152 -3 -25 -8 -57 -10 -71 -2 -14 -7 -63 -10 -110 -7 -85 -1 -106 11
-40 3 19 19 110 36 203 16 92 29 185 27 207 -2 36 -4 40 -30 40 -27 0 -27 0
-25 63 l2 62 -50 3 c-86 5 -169 39 -262 107 -47 36 -90 62 -95 59 -4 -3 -8 0
-8 5 0 6 4 11 8 11 11 0 -13 119 -27 133 -7 7 -12 5 -17 -6z"/>
<path d="M3640 3765 c0 -8 8 -15 18 -15 43 0 56 -58 25 -111 -13 -22 -28 -31
-55 -35 -38 -7 -43 -24 -7 -24 82 0 144 125 89 180 -24 24 -70 27 -70 5z"/>
<path d="M3027 3513 c-1 0 -18 -4 -37 -7 -123 -20 -167 -33 -174 -51 -6 -17 3
-19 37 -6 13 5 37 11 53 14 16 3 65 12 109 21 44 9 90 17 102 19 12 2 26 7 30
11 6 6 -114 5 -120 -1z"/>
<path d="M2616 3495 c-3 -9 17 -15 65 -19 64 -7 69 -9 69 -30 0 -13 3 -38 6
-56 6 -29 5 -31 -12 -22 -28 14 -64 -2 -64 -30 0 -60 88 -296 141 -383 17 -27
28 -41 24 -30 -4 11 -29 79 -56 152 -27 73 -49 137 -49 143 0 5 14 10 31 10
37 0 95 26 103 45 4 11 -2 11 -36 -1 -22 -8 -57 -14 -78 -14 -35 0 -38 2 -45
36 -3 20 -3 40 2 44 4 4 42 10 83 14 93 7 107 10 200 40 41 13 95 30 119 36
29 8 40 14 31 20 -19 12 -101 -3 -165 -30 -58 -24 -114 -39 -176 -46 l-35 -4
0 56 1 57 -60 12 c-74 15 -93 15 -99 0z"/>
<path d="M3356 3442 c-2 -4 2 -16 10 -27 11 -15 27 -19 77 -20 34 -1 75 -5 90
-9 15 -5 30 -6 33 -3 12 12 -60 38 -109 41 -29 1 -62 7 -74 14 -12 7 -24 9
-27 4z"/>
<path d="M3960 3373 c-32 -62 -74 -109 -125 -141 -36 -23 -49 -25 -139 -24
-54 1 -101 3 -103 6 -3 3 2 39 12 82 12 54 14 79 6 87 -16 16 -20 8 -33 -76
-11 -72 -13 -77 -36 -77 -43 0 -18 -10 84 -36 123 -30 156 -30 220 0 54 25 92
59 128 116 24 37 40 84 26 75 -5 -3 -10 4 -12 15 -2 16 -9 10 -28 -27z"/>
<path d="M2885 3300 c9 -66 18 -80 56 -80 16 0 29 -1 29 -2 0 -2 -16 -65 -35
-141 -37 -148 -46 -218 -15 -127 31 91 90 284 94 306 7 35 -9 48 -22 19 -10
-21 -18 -26 -39 -23 -22 2 -31 11 -43 45 -23 63 -33 64 -25 3z"/>
<path d="M3484 3175 c4 -66 12 -143 20 -172 8 -28 12 -54 10 -56 -2 -2 5 -21
17 -43 14 -28 19 -32 15 -14 -8 40 -34 270 -35 319 -1 24 -9 53 -17 65 -15 19
-15 11 -10 -99z"/>
<path d="M2920 2911 c0 -45 229 -103 375 -95 84 5 125 13 144 27 11 10 13 -8
9 -107 -6 -144 -4 -141 -134 -152 -75 -6 -86 5 -88 81 -1 30 -7 60 -14 67 -9
9 -12 9 -12 -3 -1 -11 -4 -10 -14 3 -11 16 -15 11 -31 -41 -10 -32 -14 -64
-11 -70 7 -10 0 -12 -66 -14 -13 -1 -47 2 -76 6 l-54 8 4 108 c5 110 -2 162
-15 127 -4 -9 -10 -68 -13 -132 l-7 -115 30 -11 c29 -11 30 -14 21 -42 -28
-90 -48 -175 -48 -208 0 -27 -5 -38 -15 -39 -41 -4 -85 -29 -100 -59 l-13 -26
51 2 c69 2 156 14 161 22 2 4 -37 6 -87 5 -86 -2 -90 -2 -62 12 17 7 42 16 57
19 28 6 27 6 42 96 2 14 13 60 25 103 11 43 19 83 18 89 -1 7 18 10 53 9 67
-2 124 29 126 69 1 14 2 34 3 44 1 25 15 11 17 -17 3 -64 15 -97 35 -97 20 0
21 -4 14 -69 -6 -62 -4 -76 20 -129 15 -34 25 -64 22 -69 -2 -4 -1 -17 3 -28
7 -18 8 -17 15 9 5 19 1 50 -13 95 -13 40 -20 84 -18 111 2 25 -1 50 -6 56 -6
9 7 11 48 9 66 -3 111 8 137 34 15 15 19 37 22 122 3 70 0 108 -8 118 -9 10
-9 15 -1 18 6 2 20 10 30 18 11 9 -3 6 -36 -7 -92 -35 -220 -36 -365 -3 -66
15 -132 33 -147 41 -16 8 -28 10 -28 5z"/>
<path d="M2768 2895 c-6 -6 -162 -41 -228 -50 -25 -4 -116 -7 -202 -7 -87 0
-158 -4 -158 -9 0 -5 8 -9 18 -10 9 0 26 -2 37 -5 42 -9 243 -5 305 6 116 20
123 22 147 31 12 4 23 7 23 6 0 -5 -18 -107 -25 -142 -12 -59 -17 -310 -7
-345 9 -31 10 -24 12 55 1 50 3 97 4 105 2 8 6 47 9 85 4 39 9 81 12 95 4 14
7 54 9 89 3 61 5 65 37 82 19 10 29 18 23 19 -6 0 -13 -2 -16 -5z"/>
<path d="M2526 2728 c3 -89 11 -214 19 -263 3 -16 7 -50 9 -75 11 -106 19
-156 28 -167 15 -19 188 -4 188 16 0 3 -38 5 -85 3 -76 -3 -85 -1 -86 15 0 10
-2 27 -4 38 -3 16 2 21 22 23 41 3 41 12 0 12 -37 0 -37 0 -38 43 0 23 -2 49
-4 58 -1 9 -6 74 -10 145 -4 71 -9 138 -10 149 -1 11 -3 27 -4 36 0 8 -7 23
-14 33 -10 14 -12 4 -11 -66z"/>
<path d="M2275 2689 c4 -142 14 -249 31 -330 4 -20 0 -28 -21 -37 -14 -7 -31
-12 -37 -12 -23 0 -77 -50 -71 -66 5 -12 8 -12 20 5 17 25 80 44 155 47 50 2
57 0 62 -19 3 -12 6 -24 6 -27 0 -3 -31 -4 -70 -4 -48 1 -73 -3 -81 -12 -10
-12 1 -14 64 -14 41 0 82 3 91 6 19 7 23 74 5 74 -8 0 -8 4 -1 13 5 6 13 41
16 77 7 70 13 125 21 205 12 124 17 210 11 204 -6 -6 -31 -139 -41 -224 -3
-27 -9 -72 -12 -100 -4 -27 -7 -74 -7 -103 l-1 -53 -45 3 -45 3 -6 50 c-4 28
-10 129 -14 225 -5 125 -11 179 -20 189 -11 12 -13 -4 -10 -100z"/>
<path d="M3069 2548 c-1 -44 -9 -94 -24 -145 -21 -73 -18 -96 6 -48 32 65 52
143 45 181 -8 38 -26 46 -27 12z"/>
<path d="M3354 2462 c4 -122 15 -142 87 -167 84 -30 81 -39 -17 -51 l-89 -11
108 -2 c100 -1 107 0 98 17 -19 34 -52 61 -89 73 -58 17 -70 47 -72 180 0 23
-6 39 -15 43 -13 5 -14 -8 -11 -82z"/>
<path d="M2671 2316 c-9 -10 0 -18 40 -35 29 -11 56 -21 62 -21 17 0 -16 31
-54 50 -31 16 -39 17 -48 6z"/>
<path d="M524 1929 c-57 -16 -96 -83 -86 -148 2 -13 31 -51 64 -85 71 -73 82
-90 74 -122 -9 -35 -43 -45 -89 -27 -44 18 -45 17 -53 -25 -6 -28 -3 -33 20
-42 39 -15 112 -12 145 5 30 15 61 69 61 104 0 40 -27 86 -84 139 -63 60 -77
93 -51 121 13 16 22 17 48 10 18 -5 33 -9 33 -9 8 0 23 65 17 71 -13 13 -66
17 -99 8z"/>
<path d="M781 1931 c-12 -8 -17 -179 -12 -418 l1 -43 40 0 c39 0 40 0 40 38 2
129 -1 417 -4 420 -9 8 -52 10 -65 3z"/>
<path d="M1166 1932 c-3 -3 -6 -106 -6 -229 0 -251 -9 -227 84 -224 90 4 136
48 136 131 0 43 -14 78 -38 96 -12 9 -11 16 6 48 31 58 17 129 -33 162 -23 15
-138 28 -149 16z m110 -89 c19 -26 17 -57 -6 -78 -11 -10 -22 -16 -24 -14 -3
3 -6 28 -8 57 -4 56 11 70 38 35z m1 -171 c17 -11 25 -69 14 -91 -6 -10 -20
-21 -31 -24 -19 -5 -20 -1 -20 59 0 64 7 75 37 56z"/>
<path d="M1631 1929 c-72 -15 -126 -80 -137 -165 -16 -129 21 -234 96 -271 24
-13 58 -23 75 -23 47 0 107 40 133 88 29 52 40 175 23 239 -25 91 -109 150
-190 132z m67 -75 c12 -8 29 -29 38 -46 19 -38 25 -138 11 -184 -32 -103 -148
-100 -174 4 -36 140 43 283 125 226z"/>
<path d="M2076 1925 c-94 -33 -142 -123 -134 -254 7 -123 64 -186 178 -198 40
-4 50 -2 57 13 5 11 8 25 7 32 -1 6 -2 16 -3 21 0 5 -16 9 -33 8 -59 -2 -83
10 -107 54 -43 76 -26 202 31 239 13 7 41 15 63 16 36 1 40 4 46 32 11 52 -26
65 -105 37z"/>
<path d="M2393 1926 c-9 -14 -102 -440 -97 -445 2 -2 18 -6 34 -8 27 -3 33 1
46 32 13 32 18 35 54 35 36 0 41 -3 54 -34 12 -29 18 -33 45 -31 18 1 33 4 35
6 2 2 -13 81 -34 174 -21 94 -43 195 -49 226 -12 55 -12 55 -47 55 -20 -1 -38
-5 -41 -10z m45 -202 c-3 -3 0 -27 7 -54 12 -44 11 -49 -5 -53 -33 -8 -39 5
-28 61 6 28 15 52 21 52 6 0 8 -3 5 -6z"/>
<path d="M2676 1930 c-2 -3 -2 -106 -2 -230 l1 -225 34 -3 c19 -2 37 2 41 8 4
6 6 49 5 96 l-1 84 43 0 c24 0 46 0 51 0 4 0 8 -37 9 -83 1 -45 2 -88 2 -95 1
-9 13 -12 39 -10 l37 3 1 223 c2 206 0 223 -16 232 -12 7 -28 7 -45 0 -26 -10
-26 -11 -22 -89 2 -44 1 -84 -2 -88 -7 -11 -48 -15 -77 -8 -21 5 -22 10 -20
90 2 46 0 88 -3 92 -7 9 -71 11 -75 3z"/>
<path d="M3345 1929 c-3 -4 -19 -70 -35 -146 -16 -76 -36 -167 -44 -203 -24
-98 -22 -106 19 -107 30 -1 36 3 42 26 8 33 20 41 61 41 28 0 35 -5 47 -34 12
-29 20 -35 45 -34 17 1 33 4 35 8 3 5 -45 245 -69 345 -2 6 -6 31 -11 58 -4
26 -10 48 -14 48 -31 6 -73 5 -76 -2z m59 -310 c-2 -4 -14 -4 -28 -2 -21 4
-23 8 -15 36 4 18 11 46 15 62 6 27 8 25 19 -30 7 -33 11 -63 9 -66z"/>
<path d="M3634 1928 c-4 -7 -8 -259 -5 -405 l1 -53 40 0 40 0 0 103 0 102 20
-25 c11 -14 20 -28 20 -32 0 -4 19 -39 42 -78 42 -69 42 -70 85 -70 24 0 43 2
43 5 0 6 -59 117 -103 194 -14 24 -23 51 -20 60 3 9 28 55 55 103 28 48 48 91
45 95 -4 6 -43 8 -78 4 -3 -1 -28 -42 -55 -92 l-49 -90 -3 90 c-2 63 -7 91
-15 92 -7 0 -22 2 -35 3 -13 2 -25 -1 -28 -6z"/>
<path d="M4102 1920 c-42 -26 -64 -63 -68 -111 -2 -38 2 -45 67 -113 64 -68
75 -87 71 -127 -3 -27 -44 -39 -81 -23 -45 19 -48 18 -59 -15 -14 -40 4 -54
79 -59 50 -4 65 -1 93 18 38 27 55 64 50 109 -6 48 -27 82 -88 138 -56 52 -67
80 -47 112 6 10 20 12 48 8 36 -6 40 -4 50 22 6 16 7 34 4 40 -13 21 -86 21
-119 1z"/>
<path d="M4472 1931 c-10 -6 -23 -43 -28 -76 -1 -11 -21 -99 -43 -195 -22 -96
-39 -176 -37 -178 2 -1 18 -4 35 -7 29 -3 34 0 47 31 13 31 18 34 55 34 35 0
41 -3 50 -30 11 -31 30 -42 64 -36 14 2 19 10 17 27 -5 45 -83 404 -91 419 -8
14 -52 22 -69 11z m52 -290 c10 -16 -9 -30 -34 -24 -15 4 -16 10 -8 46 14 68
21 76 27 32 4 -22 10 -46 15 -54z"/>
<path d="M4752 1925 c-7 -11 -12 -410 -5 -437 5 -21 73 -26 74 -5 0 6 0 45 -1
85 -1 47 3 72 10 72 6 0 8 -4 5 -10 -3 -5 -1 -10 4 -10 6 0 11 -5 11 -11 0 -5
14 -39 31 -75 l31 -64 44 0 c24 0 44 3 44 6 0 4 -21 49 -47 101 l-48 94 23 19
c26 22 52 78 52 116 0 40 -30 93 -61 109 -34 18 -158 25 -167 10z m130 -92
c11 -10 15 -25 12 -51 -5 -39 -26 -62 -55 -62 -15 0 -18 9 -16 63 1 79 13 89
59 50z"/>
<path d="M5213 1931 c-10 -7 -48 -157 -68 -268 -3 -18 -9 -43 -15 -57 -5 -15
-8 -26 -6 -26 2 0 -2 -22 -9 -50 -14 -54 -16 -52 42 -54 23 -1 29 4 33 29 5
27 9 30 47 33 40 3 44 1 59 -31 13 -27 23 -34 45 -35 16 0 31 3 34 8 3 5 -3
48 -14 97 -11 48 -22 99 -25 113 -13 69 -49 235 -52 239 -6 6 -62 8 -71 2z
m42 -279 c-2 -7 0 -10 5 -7 6 3 10 0 10 -8 0 -20 -9 -25 -31 -20 -21 6 -21 9
-4 93 2 8 4 20 5 25 1 6 6 -8 11 -30 5 -21 7 -45 4 -53z"/>
</g>
</svg>
